<svg width="200" height="70" viewBox="0 0 200 70" fill="none" xmlns="http://www.w3.org/2000/svg">
  <g id="Logo">
    <!-- Flag Pole -->
    <path d="M20 10 V 60" stroke="#38BDF8" stroke-width="4" />
    
    <!-- Flag Shape -->
    <path d="M22 12 L 52 12 L 47 30 L 52 48 L 22 48 Z" 
          fill="#38BDF8" fill-opacity="0.1" 
          stroke="#38BDF8" stroke-width="2" />
          
    <!-- Gear Icon -->
    <g transform="translate(37, 30) scale(0.7)">
      <path d="M23.9,14.6c-0.2-0.5-0.5-1-0.9-1.4l-0.3-0.3c-0.2-0.2-0.5-0.3-0.8-0.3l-2.8-0.2c-0.6-0.1-1.1,0.1-1.5,0.5l-2,2 c-0.4,0.4-0.5,1-0.5,1.5l0.2,2.8c0.1,0.3,0.1,0.6,0.3,0.8l0.3,0.3c0.4,0.4,0.9,0.7,1.4,0.9l2.4,1.1c0.5,0.2,1.1,0.2,1.6,0 l2.4-1.1c0.5-0.2,1-0.5,1.4-0.9l0.3-0.3c0.2-0.2,0.3-0.5,0.3-0.8l0.2-2.8c0.1-0.6-0.1-1.1-0.5-1.5l-2-2 C24.2,15.1,24.1,14.8,23.9,14.6z M16,19c-1.7,0-3-1.3-3-3s1.3-3,3-3s3,1.3,3,3S17.7,19,16,19z" fill="#004AAD"/>
      <path d="M16,32L16,32c-0.6,0-1-0.4-1-1v-4c0-0.6,0.4-1,1-1h0c0.6,0,1,0.4,1,1v4C17,31.6,16.6,32,16,32z" fill="#004AAD"/>
      <path d="M23,26.8L23,26.8c-0.5-0.3-1.1-0.2-1.4,0.3l-2,3.5c-0.3,0.5-0.2,1.1,0.3,1.4l0,0c0.5,0.3,1.1,0.2,1.4-0.3l2-3.5 C23.5,27.7,23.4,27.1,23,26.8z" fill="#004AAD"/>
      <path d="M9,26.8L9,26.8c-0.5,0.3-0.6,0.9-0.3,1.4l2,3.5c0.3,0.5,0.9,0.6,1.4,0.3l0,0c0.5-0.3,0.6-0.9,0.3-1.4l-2-3.5 C10.1,26.7,9.5,26.5,9,26.8z" fill="#004AAD"/>
      <path d="M0,16L0,16c0-0.6,0.4-1,1-1h4c0.6,0,1,0.4,1,1v0c0,0.6-0.4,1-1,1H1C0.4,17,0,16.6,0,16z" fill="#004AAD"/>
      <path d="M5.2,9L5.2,9C4.7,8.7,4.6,8.1,4.9,7.6l2-3.5C7.2,3.6,7.8,3.5,8.3,3.8L8.3,3.8c0.5,0.3,0.6,0.9,0.3,1.4l-2,3.5 C6.3,9.2,5.7,9.3,5.2,9z" fill="#004AAD"/>
      <path d="M26.8,9L26.8,9c0.5-0.3,1.1-0.2,1.4,0.3l2,3.5c0.3,0.5,0.2,1.1-0.3,1.4l0,0c-0.5,0.3-1.1,0.2-1.4-0.3l-2-3.5 C26.3,9.9,26.4,9.3,26.8,9z" fill="#004AAD"/>
      <path d="M16,0L16,0c0.6,0,1,0.4,1,1v4c0,0.6-0.4,1-1,1h0c-0.6,0-1-0.4-1-1V1C15,0.4,15.4,0,16,0z" fill="#004AAD"/>
      <path d="M27,16L27,16c0,0.6,0.4,1,1,1h4c0.6,0,1-0.4,1-1v0c0-0.6-0.4-1-1-1h-4C27.4,15,27,15.4,27,16z" fill="#004AAD"/>
    </g>

    <!-- Text -->
    <text x="70" y="30" font-family="PT Sans, sans-serif" font-size="14" fill="#38BDF8" letter-spacing="0.1em">PROPAGATE</text>
    <text x="70" y="55" font-family="Space Grotesk, sans-serif" font-size="22" font-weight="bold" fill="#004AAD">DIGITAL</text>
  </g>
</svg>
